# Blender v2.93.2 OBJ File: 'untitled.blend'
# www.blender.org
mtllib cube.mtl
o Cube_Cube.002
v -0.967996 -1.047882 0.701776
v -0.967996 0.751419 0.701776
v -0.967996 -1.047882 -1.097524
v -0.967996 0.751419 -1.097524
v 0.881540 -1.047882 0.752012
v 0.881540 0.801655 0.701776
v 0.881540 -1.047882 -1.147760
v 0.881540 0.801655 -1.097524
v -0.917760 -1.047882 -1.147760
v -0.917760 -1.047882 0.752012
v -0.917760 0.801655 0.701776
v -0.917760 0.801655 -1.097524
v -0.917760 0.751419 0.752012
v -0.917760 0.751419 -1.147760
v 0.881540 0.751419 -1.147760
v 0.881540 0.751419 0.752012
v -0.998876 0.832534 -1.178640
v -0.917760 -1.098118 -1.097524
v 0.931776 -1.047882 -1.097524
v 0.931776 0.751419 -1.097524
v -0.917760 -1.098118 0.701776
v -0.998876 0.832534 0.782892
v 0.931776 0.751419 0.701776
v 0.931776 -1.047882 0.701776
v 0.962656 0.832534 -1.178640
v 0.881540 -1.098118 -1.097524
v 0.881540 -1.098118 0.701776
v 0.962656 0.832534 0.782892
v -0.998876 -1.128997 -1.178640
v -0.998876 -1.128997 0.782892
v 0.962656 -1.128997 -1.178640
v 0.962656 -1.128997 0.782892
vt 0.375000 0.000000
vt 0.625000 0.000000
vt 0.625000 0.250000
vt 0.375000 0.250000
vt 0.375000 0.250000
vt 0.625000 0.250000
vt 0.625000 0.500000
vt 0.375000 0.500000
vt 0.375000 0.500000
vt 0.625000 0.500000
vt 0.625000 0.750000
vt 0.375000 0.750000
vt 0.375000 0.750000
vt 0.625000 0.750000
vt 0.625000 1.000000
vt 0.375000 1.000000
vt 0.125000 0.500000
vt 0.375000 0.500000
vt 0.375000 0.750000
vt 0.125000 0.750000
vt 0.625000 0.500000
vt 0.875000 0.500000
vt 0.875000 0.750000
vt 0.625000 0.750000
vt 0.375000 0.250000
vt 0.375000 0.000000
vt nan nan
vt nan nan
vt nan nan
vt nan nan
vt 0.625000 0.000000
vt 0.625000 0.250000
vt nan nan
vt nan nan
vt nan nan
vt nan nan
vt 0.875000 0.500000
vt 0.875000 0.750000
vt 0.625000 0.500000
vt 0.625000 0.750000
vt nan nan
vt nan nan
vt nan nan
vt nan nan
vt 0.375000 0.500000
vt nan nan
vt nan nan
vt nan nan
vt nan nan
vt nan nan
vt nan nan
vt nan nan
vt nan nan
vt nan nan
vt nan nan
vt nan nan
vt nan nan
vt 0.375000 1.000000
vt 0.375000 0.750000
vt 0.625000 1.000000
vt nan nan
vt nan nan
vt nan nan
vt nan nan
vt nan nan
vt nan nan
vt nan nan
vt nan nan
vt 0.125000 0.750000
vt 0.125000 0.500000
vn -1.0000 0.0000 0.0000
vn 0.0000 0.0000 -1.0000
vn 1.0000 0.0000 0.0000
vn 0.0000 0.0000 1.0000
vn 0.0000 -1.0000 0.0000
vn 0.0000 1.0000 0.0000
vn -0.9346 0.3558 0.0000
vn -0.9346 0.0000 -0.3558
vn -0.9346 -0.3558 0.0000
vn -0.9346 0.0000 0.3558
vn 0.3558 0.9346 0.0000
vn 0.0000 0.9346 0.3558
vn -0.3558 0.9346 0.0000
vn 0.0000 0.9346 -0.3558
vn 0.3558 0.0000 -0.9346
vn 0.0000 0.3558 -0.9346
vn 0.0000 -0.3558 -0.9346
vn -0.3558 0.0000 -0.9346
vn 0.3558 0.0000 0.9346
vn -0.3558 0.0000 0.9346
vn 0.0000 0.3558 0.9346
vn 0.0000 -0.3558 0.9346
vn 0.9346 0.0000 0.3558
vn 0.9346 0.3558 0.0000
vn 0.9346 -0.3558 0.0000
vn 0.9346 0.0000 -0.3558
vn 0.3558 -0.9346 0.0000
vn 0.0000 -0.9346 0.3558
vn -0.3558 -0.9346 0.0000
vn 0.0000 -0.9346 -0.3558
usemtl Material.001
s off
f 1/1/1 2/2/1 4/3/1 3/4/1
f 9/5/2 14/6/2 15/7/2 7/8/2
f 19/9/3 20/10/3 23/11/3 24/12/3
f 5/13/4 16/14/4 13/15/4 10/16/4
f 18/17/5 26/18/5 27/19/5 21/20/5
f 8/21/6 12/22/6 11/23/6 6/24/6
f 1/1/7 3/4/7 29/25/7 30/26/7
f 2/27/8 1/28/8 30/29/8 22/30/8
f 4/3/9 2/2/9 22/31/9 17/32/9
f 3/33/10 4/34/10 17/35/10 29/36/10
f 11/23/11 12/22/11 17/37/11 22/38/11
f 12/22/12 8/21/12 25/39/12 17/37/12
f 8/21/13 6/24/13 28/40/13 25/39/13
f 6/24/14 11/23/14 22/38/14 28/40/14
f 14/41/15 9/42/15 29/43/15 17/44/15
f 9/5/16 7/8/16 31/45/16 29/25/16
f 15/7/17 14/6/17 17/32/17 25/39/17
f 7/46/18 15/47/18 25/48/18 31/49/18
f 10/50/19 13/51/19 22/52/19 30/53/19
f 16/54/20 5/55/20 32/56/20 28/57/20
f 5/13/21 10/16/21 30/58/21 32/59/21
f 13/15/22 16/14/22 28/40/22 22/60/22
f 20/61/23 19/62/23 31/63/23 25/64/23
f 19/9/24 24/12/24 32/59/24 31/45/24
f 23/11/25 20/10/25 25/39/25 28/40/25
f 24/65/26 23/66/26 28/67/26 32/68/26
f 18/17/27 21/20/27 30/69/27 29/70/27
f 26/18/28 18/17/28 29/70/28 31/45/28
f 27/19/29 26/18/29 31/45/29 32/59/29
f 21/20/30 27/19/30 32/59/30 30/69/30
